<?xml version="1.0" encoding="iso-8859-1"?>
<!-- Uploaded to: SVG Repo, www.svgrepo.com, Generator: SVG Repo Mixer Tools -->
<svg height="800px" width="800px" version="1.1" id="Layer_1" xmlns="http://www.w3.org/2000/svg" xmlns:xlink="http://www.w3.org/1999/xlink" 
	 viewBox="0 0 512 512" xml:space="preserve">
<g>
	<path style="fill:#B7C4CC;" d="M495.304,133.565h-77.913c-9.217,0-16.696-7.473-16.696-16.696s7.479-16.696,16.696-16.696h77.913
		c9.217,0,16.696,7.473,16.696,16.696S504.521,133.565,495.304,133.565z"/>
	<path style="fill:#B7C4CC;" d="M217.043,300.522h-66.783c-9.217,0-16.696-7.473-16.696-16.696v-66.783
		c0-9.223,7.479-16.696,16.696-16.696h66.783c9.217,0,16.696,7.473,16.696,16.696v66.783
		C233.739,293.049,226.261,300.522,217.043,300.522z"/>
</g>
<g>
	<path style="fill:#665247;" d="M350.609,200.348c-3.054,0-6.098-0.837-8.783-2.494c-4.913-3.044-7.913-8.413-7.913-14.201V50.087
		c0-5.788,3-11.157,7.913-14.201c4.924-3.043,11.076-3.31,16.25-0.733l66.783,33.391c5.652,2.832,9.228,8.608,9.228,14.935v66.783
		c0,6.327-3.576,12.103-9.228,14.935l-66.783,33.391C355.718,199.761,353.163,200.348,350.609,200.348z"/>
	<path style="fill:#665247;" d="M133.565,411.826H66.783c-18.442,0-33.391-14.949-33.391-33.391V233.739
		c0-18.442,14.949-33.391,33.391-33.391h66.783c18.442,0,33.391,14.949,33.391,33.391v144.696
		C166.957,396.877,152.007,411.826,133.565,411.826z"/>
</g>
<path style="fill:#F37B2A;" d="M317.217,233.739H50.087C22.468,233.739,0,211.271,0,183.652V50.087C0,22.468,22.468,0,50.087,0
	h267.13c27.619,0,50.087,22.468,50.087,50.087v133.565C367.304,211.271,344.836,233.739,317.217,233.739z"/>
<path style="fill:#E56722;" d="M317.217,0H267.13v233.739h50.087c27.619,0,50.087-22.468,50.087-50.087V50.087
	C367.304,22.468,344.836,0,317.217,0z"/>
<g>
	<path style="fill:#99522E;" d="M250.435,100.174H116.87c-9.217,0-16.696-7.473-16.696-16.696s7.479-16.696,16.696-16.696h133.565
		c9.217,0,16.696,7.473,16.696,16.696S259.652,100.174,250.435,100.174z"/>
	<path style="fill:#99522E;" d="M250.435,166.957H116.87c-9.217,0-16.696-7.473-16.696-16.696s7.479-16.696,16.696-16.696h133.565
		c9.217,0,16.696,7.473,16.696,16.696S259.652,166.957,250.435,166.957z"/>
</g>
<path style="fill:#F37B2A;" d="M217.043,512H50.087C22.468,512,0,489.532,0,461.913v-33.391c0-27.619,22.468-50.087,50.087-50.087
	h166.957c27.619,0,50.087,22.468,50.087,50.087v33.391C267.13,489.532,244.663,512,217.043,512z"/>
</svg>