<?xml version="1.0" encoding="iso-8859-1"?>
<!-- Uploaded to: SVG Repo, www.svgrepo.com, Generator: SVG Repo Mixer Tools -->
<svg version="1.1" id="Layer_1" xmlns="http://www.w3.org/2000/svg" xmlns:xlink="http://www.w3.org/1999/xlink" 
	 viewBox="0 0 512 512" xml:space="preserve">
<circle style="fill:#00E4ED;" cx="256" cy="256" r="256"/>
<path style="fill:#00D2DE;" d="M267.13,511.745c123.689-5.292,224.632-98.337,242.16-218.465L347.336,131.327L142.222,256
	l40.388,40.388L165.124,409.74L267.13,511.745z"/>
<rect x="142.222" y="199.111" style="fill:#005E8B;" width="28.444" height="56.889"/>
<g>
	<rect x="341.333" y="199.111" style="fill:#00447D;" width="28.444" height="56.889"/>
	<path style="fill:#00447D;" d="M199.184,113.778c-23.604,0-42.739,19.135-42.739,42.739v227.412
		c0,23.604,19.135,42.739,42.739,42.739h56.242V113.778H199.184z"/>
</g>
<g>
	<path style="fill:#062964;" d="M312.818,113.778h-57.392v312.889h57.392c23.604,0,42.739-19.135,42.739-42.739V156.517
		C355.556,132.913,336.422,113.778,312.818,113.778z"/>
	<rect x="204.283" y="113.778" style="fill:#062964;" width="103.434" height="312.889"/>
</g>
<rect x="255.431" y="113.778" style="fill:#070C49;" width="52.291" height="312.889"/>
<polygon style="fill:#FF764C;" points="294.788,170.667 294.788,160.323 217.212,160.323 217.212,170.667 170.667,170.667 
	170.667,256 341.333,256 341.333,170.667 "/>
<polygon style="fill:#FF450C;" points="341.333,170.667 294.788,170.667 294.788,160.323 255.426,160.323 255.426,256 341.333,256 
	"/>
<rect x="175.838" y="174.976" style="fill:#BDFBFD;" width="160.323" height="76.714"/>
<rect x="255.431" y="174.976" style="fill:#00E4ED;" width="80.736" height="76.714"/>
</svg>