<?xml version="1.0" encoding="iso-8859-1"?>
<!-- Uploaded to: SVG Repo, www.svgrepo.com, Generator: SVG Repo Mixer Tools -->
<svg version="1.1" id="Layer_1" xmlns="http://www.w3.org/2000/svg" xmlns:xlink="http://www.w3.org/1999/xlink" 
	 viewBox="0 0 392.598 392.598" xml:space="preserve">
<path style="fill:#FFFFFF;" d="M352.937,21.786h-211.2v348.962h211.2c6.012,0,10.925-4.848,10.925-10.925V32.711
	C363.798,26.699,358.95,21.786,352.937,21.786z"/>
<rect x="163.523" y="43.572" style="fill:#FFC10D;" width="178.489" height="305.325"/>
<g>
	<path style="fill:#194F82;" d="M299.022,225.681c-3.814,0-5.689-3.168-5.689-9.503V155.41h-23.79v7.887
		c-5.947-6.788-13.964-10.15-21.333-10.15c-25.277,0.259-38.917,21.398-39.046,44.412c-0.388,23.337,17.067,43.119,39.887,43.119
		c10.731,0,19.523-4.461,26.57-13.511c4.396,9.762,11.378,15.127,21.463,15.451c20.04-0.711,31.354-18.941,31.354-46.287
		c0-44.8-34.327-76.671-74.408-75.83c-39.628-1.616-78.352,34.715-76.865,77.059c-1.616,40.727,33.228,75.507,74.667,74.343
		c15.838-0.776,29.931-5.301,41.632-14.869l-7.822-13.511c-9.762,9.438-21.075,14.093-33.875,14.093
		c-35.232,0.388-58.893-30.384-57.859-60.057c-1.034-35.168,30.707-64.129,61.285-62.772c33.875-0.84,56.307,25.859,56.695,62.061
		C312.275,211.394,306.651,225.293,299.022,225.681z M251.572,219.604c-10.214,0.646-18.101-9.826-18.101-22.95
		c0-11.378,7.499-22.497,17.907-21.786c9.05,0.259,18.23,6.659,18.23,22.109C269.608,210.166,262.885,219.152,251.572,219.604z"/>
	<path style="fill:#194F82;" d="M352.937,0H83.426C59.313,0,39.79,19.523,39.79,43.572V67.62H17.875
		c-6.012,0-10.925,4.848-10.925,10.925c0,6.012,4.848,10.925,10.925,10.925H39.79v213.657H17.875
		c-6.012,0-10.925,4.848-10.925,10.925c0,6.012,4.848,10.925,10.925,10.925H39.79v24.048c0,24.048,19.523,43.572,43.572,43.572
		h269.576c18.036,0,32.711-14.675,32.711-32.711V32.711C385.649,14.675,371.038,0,352.937,0z M119.952,370.747H83.426
		c-12.024,0-21.786-9.826-21.786-21.786v-24.048h16.226c6.012,0,10.925-4.848,10.925-10.925s-4.848-10.925-10.925-10.925H61.64
		V89.406h16.226c6.012,0,10.925-4.848,10.925-10.925c0-6.012-4.848-10.925-10.925-10.925H61.64V43.507
		c0-12.024,9.826-21.786,21.786-21.786h36.525V370.747z M363.798,359.822c0,6.012-4.848,10.925-10.925,10.925H141.737V121.406
		h22.109c6.012,0,10.925-4.848,10.925-10.925c0-6.012-4.848-10.925-10.925-10.925h-22.109V77.77h43.96
		c6.012,0,10.925-4.848,10.925-10.925c0-6.012-4.848-10.925-10.925-10.925h-43.96V21.657h211.2c6.012,0,10.925,4.848,10.925,10.925
		v327.24H363.798z"/>
</g>
<path style="fill:#56ACE0;" d="M61.511,43.572V67.62h16.226c6.012,0,10.925,4.848,10.925,10.925c0,6.012-4.848,10.925-10.925,10.925
	H61.511v213.657h16.226c6.012,0,10.925,4.848,10.925,10.925c0,6.012-4.848,10.925-10.925,10.925H61.511v24.048
	c0,12.024,9.826,21.786,21.786,21.786h36.525V21.786H83.297C71.337,21.786,61.511,31.612,61.511,43.572z"/>
<path style="fill:#194F82;" d="M298.893,225.681c-3.814,0-5.689-3.168-5.689-9.503V155.41h-23.79v7.887
	c-5.947-6.788-13.964-10.15-21.333-10.15c-25.277,0.259-38.917,21.398-39.046,44.412c-0.388,23.337,17.067,43.119,39.887,43.119
	c10.731,0,19.523-4.461,26.57-13.511c4.396,9.762,11.378,15.127,21.463,15.451c20.04-0.711,31.354-18.941,31.354-46.287
	c0-44.8-34.327-76.671-74.408-75.83c-39.564-1.616-78.287,34.715-76.865,77.059c-1.616,40.727,33.228,75.507,74.667,74.343
	c15.838-0.776,29.931-5.301,41.632-14.869l-7.822-13.511c-9.762,9.438-21.075,14.093-33.875,14.093
	c-35.232,0.388-58.893-30.384-57.859-60.057c-1.034-35.168,30.707-64.129,61.285-62.772c33.875-0.84,56.307,25.859,56.695,62.061
	C312.21,211.394,306.586,225.293,298.893,225.681z M251.572,219.604c-10.214,0.646-18.101-9.826-18.101-22.95
	c0-11.378,7.499-22.497,17.907-21.786c9.05,0.259,18.23,6.659,18.23,22.109C269.608,210.166,262.885,219.152,251.572,219.604z"/>
</svg>