<?xml version="1.0" encoding="iso-8859-1"?>
<!-- Uploaded to: SVG Repo, www.svgrepo.com, Generator: SVG Repo Mixer Tools -->
<svg height="800px" width="800px" version="1.1" id="Layer_1" xmlns="http://www.w3.org/2000/svg" xmlns:xlink="http://www.w3.org/1999/xlink" 
	 viewBox="0 0 508.05 508.05" xml:space="preserve">
<path style="fill:#FFC10D;" d="M132.625,215.5h-20.8c23.6,75.1,100,193.7,142.2,254c50.4-72,149.4-227,149.4-291.9
	c0-82.4-67-149.4-149.4-149.4c-69.2,0-127.5,47.4-144.3,111.5h46.7c7.8,0,14.1,6.3,14.1,14.1s-6.3,14.1-14.1,14.1h-51.3
	c-0.2,3.2-0.5,6.4-0.5,9.7c0,3,0.3,6.3,0.7,9.7h27.3c7.8,0,14.1,6.3,14.1,14.1S140.425,215.5,132.625,215.5z"/>
<path style="fill:#194F82;" d="M254.025,0c-97.9,0-177.6,79.7-177.6,177.6c0,93.8,159.4,315.2,166.1,324.6l0,0
	c5.6,7.8,17.2,7.8,22.9,0c6.8-9.4,166.2-230.8,166.2-324.6C431.625,79.7,351.925,0,254.025,0z M132.625,187.2h-27.3
	c-0.4-3.4-0.7-6.7-0.7-9.7c0-3.3,0.3-6.5,0.5-9.7h51.3c7.8,0,14.1-6.3,14.1-14.1s-6.3-14.1-14.1-14.1h-46.7
	c16.8-64,75.1-111.5,144.3-111.5c82.4,0,149.4,67,149.4,149.4c0,64.9-99,219.9-149.4,291.9c-42.2-60.4-118.6-179-142.2-254h20.8
	c7.8,0,14.1-6.3,14.1-14.1S140.425,187.2,132.625,187.2z"/>
<path style="fill:#FFFFFF;" d="M254.025,142.9c-19.1,0-34.7,15.6-34.7,34.7s15.6,34.7,34.7,34.7s34.7-15.6,34.7-34.7
	S273.125,142.9,254.025,142.9z"/>
<path style="fill:#194F82;" d="M254.025,114.7c-34.7,0-62.9,28.2-62.9,62.9s28.2,62.9,62.9,62.9s62.9-28.2,62.9-62.9
	S288.725,114.7,254.025,114.7z M254.025,212.3c-19.1,0-34.7-15.6-34.7-34.7s15.6-34.7,34.7-34.7s34.7,15.6,34.7,34.7
	S273.125,212.3,254.025,212.3z"/>
</svg>