<?xml version="1.0" encoding="iso-8859-1"?>
<!-- Uploaded to: SVG Repo, www.svgrepo.com, Generator: SVG Repo Mixer Tools -->
<svg version="1.1" id="Layer_1" xmlns="http://www.w3.org/2000/svg" xmlns:xlink="http://www.w3.org/1999/xlink" 
	 viewBox="0 0 392.598 392.598" xml:space="preserve">
<rect x="88.63" y="73.697" style="fill:#FFFFFF;" width="215.208" height="229.172"/>
<g>
	<path style="fill:#56ACE0;" d="M88.63,350.707c0,11.055,8.986,20.04,20.04,20.04h175.257c11.055,0,20.04-8.986,20.04-20.04v-25.988
		H88.695v25.988H88.63z"/>
	<path style="fill:#56ACE0;" d="M303.903,41.826c0-11.055-8.986-20.04-20.04-20.04H108.671c-11.055,0-20.04,8.986-20.04,20.04
		v10.149h215.208V41.826H303.903z"/>
</g>
<rect x="110.481" y="95.612" style="fill:#FFC10D;" width="171.636" height="185.6"/>
<g>
	<path style="fill:#194F82;" d="M283.863,0H108.671C85.657,0,66.844,18.747,66.844,41.826v308.945
		c0,23.014,18.747,41.826,41.826,41.826h175.257c23.014,0,41.826-18.747,41.826-41.826V41.826C325.689,18.747,306.941,0,283.863,0z
		 M88.63,219.863h20.299c6.012,0,10.925-4.848,10.925-10.925c0-6.012-4.848-10.925-10.925-10.925H88.63v-19.394h40.857
		c6.012,0,10.925-4.848,10.925-10.925c0-6.077-4.913-10.861-10.925-10.861H88.63V73.697h215.208v229.236H88.63V219.863z
		 M283.863,370.747H108.671c-11.055,0-20.04-8.986-20.04-20.04v-25.988h215.208v25.988h0.065
		C303.903,361.762,294.917,370.747,283.863,370.747z M303.903,51.911H88.63V41.762c0-11.055,8.986-20.04,20.04-20.04h175.257
		c11.055,0,20.04,8.986,20.04,20.04v10.149H303.903z"/>
	<path style="fill:#194F82;" d="M213.915,336.808h-35.232c-6.012,0-10.925,4.848-10.925,10.925c0,6.012,4.848,10.925,10.925,10.925
		h35.232c6.012,0,10.925-4.848,10.925-10.925C224.776,341.721,219.927,336.808,213.915,336.808z"/>
</g>
</svg>